<svg width="30" height="33" viewBox="0 0 30 33" fill="none" xmlns="http://www.w3.org/2000/svg">
<path d="M27.5 2.53846H23.75V1.26923C23.75 0.93261 23.6183 0.609776 23.3839 0.371749C23.1495 0.133722 22.8315 0 22.5 0C22.1685 0 21.8505 0.133722 21.6161 0.371749C21.3817 0.609776 21.25 0.93261 21.25 1.26923V2.53846H8.75V1.26923C8.75 0.93261 8.6183 0.609776 8.38388 0.371749C8.14946 0.133722 7.83152 0 7.5 0C7.16848 0 6.85054 0.133722 6.61612 0.371749C6.3817 0.609776 6.25 0.93261 6.25 1.26923V2.53846H2.5C1.83696 2.53846 1.20107 2.80591 0.732233 3.28196C0.263392 3.75801 0 4.40368 0 5.07692V30.4615C0 31.1348 0.263392 31.7804 0.732233 32.2565C1.20107 32.7326 1.83696 33 2.5 33H27.5C28.163 33 28.7989 32.7326 29.2678 32.2565C29.7366 31.7804 30 31.1348 30 30.4615V5.07692C30 4.40368 29.7366 3.75801 29.2678 3.28196C28.7989 2.80591 28.163 2.53846 27.5 2.53846ZM12.5 26.6538C12.5 26.9905 12.3683 27.3133 12.1339 27.5513C11.8995 27.7894 11.5815 27.9231 11.25 27.9231C10.9185 27.9231 10.6005 27.7894 10.3661 27.5513C10.1317 27.3133 10 26.9905 10 26.6538V18.553L9.30938 18.9052C9.01266 19.0558 8.66917 19.0806 8.35446 18.9741C8.03975 18.8676 7.7796 18.6385 7.63125 18.3372C7.48289 18.0359 7.45848 17.6872 7.56339 17.3676C7.66829 17.0481 7.89391 16.7839 8.19062 16.6333L10.6906 15.364C10.8813 15.2672 11.0931 15.2214 11.3061 15.2311C11.5191 15.2409 11.7261 15.3057 11.9074 15.4195C12.0887 15.5334 12.2383 15.6924 12.3421 15.8815C12.4458 16.0706 12.5002 16.2835 12.5 16.5V26.6538ZM21.25 25.3846C21.5815 25.3846 21.8995 25.5183 22.1339 25.7564C22.3683 25.9944 22.5 26.3172 22.5 26.6538C22.5 26.9905 22.3683 27.3133 22.1339 27.5513C21.8995 27.7894 21.5815 27.9231 21.25 27.9231H16.25C16.0179 27.9231 15.7903 27.8574 15.5928 27.7335C15.3954 27.6096 15.2358 27.4323 15.132 27.2215C15.0282 27.0106 14.9842 26.7746 15.005 26.5399C15.0259 26.3051 15.1107 26.0809 15.25 25.8923L19.7469 19.8048C19.8492 19.6665 19.9225 19.5085 19.9625 19.3404C20.0025 19.1723 20.0082 18.9977 19.9793 18.8272C19.9504 18.6568 19.8876 18.4942 19.7946 18.3493C19.7016 18.2045 19.5804 18.0804 19.4385 17.9848C19.2965 17.8892 19.1369 17.8241 18.9693 17.7934C18.8017 17.7627 18.6297 17.7671 18.4638 17.8063C18.2979 17.8456 18.1417 17.9188 18.0047 18.0216C17.8677 18.1243 17.7529 18.2544 17.6672 18.4038C17.5875 18.5528 17.4793 18.684 17.3489 18.7898C17.2185 18.8956 17.0685 18.9738 16.9078 19.0198C16.7472 19.0658 16.5791 19.0786 16.4135 19.0576C16.2478 19.0365 16.088 18.982 15.9435 18.8972C15.7989 18.8125 15.6726 18.6991 15.5719 18.564C15.4711 18.4288 15.3981 18.2745 15.3571 18.1103C15.316 17.946 15.3078 17.775 15.3329 17.6074C15.358 17.4399 15.4159 17.2791 15.5031 17.1346C15.916 16.4091 16.5531 15.8421 17.3156 15.5216C18.0782 15.2011 18.9235 15.1449 19.7207 15.3618C20.5178 15.5787 21.2222 16.0566 21.7247 16.7213C22.2272 17.386 22.4997 18.2005 22.5 19.0385C22.5027 19.8662 22.2369 20.6719 21.7438 21.331L18.75 25.3846H21.25ZM2.5 10.1538V5.07692H6.25V6.34615C6.25 6.68277 6.3817 7.00561 6.61612 7.24364C6.85054 7.48166 7.16848 7.61538 7.5 7.61538C7.83152 7.61538 8.14946 7.48166 8.38388 7.24364C8.6183 7.00561 8.75 6.68277 8.75 6.34615V5.07692H21.25V6.34615C21.25 6.68277 21.3817 7.00561 21.6161 7.24364C21.8505 7.48166 22.1685 7.61538 22.5 7.61538C22.8315 7.61538 23.1495 7.48166 23.3839 7.24364C23.6183 7.00561 23.75 6.68277 23.75 6.34615V5.07692H27.5V10.1538H2.5Z" fill="#E4E6F6"/>
</svg>
