<svg width="16" height="18" viewBox="0 0 16 18" fill="none" xmlns="http://www.w3.org/2000/svg">
<path d="M3.25099 17.6667C2.76566 17.6667 2.35255 17.4962 2.01166 17.1554C1.67077 16.8145 1.50033 16.4017 1.50033 15.9171V2.50002H0.416992V1.41669H4.75033V0.58252H11.2503V1.41669H15.5837V2.50002H14.5003V15.9171C14.5003 16.4154 14.3335 16.8318 13.9998 17.1662C13.6662 17.5006 13.2494 17.6674 12.7497 17.6667H3.25099ZM13.417 2.50002H2.58366V15.9171C2.58366 16.1114 2.64613 16.271 2.77108 16.3959C2.89602 16.5209 3.05599 16.5834 3.25099 16.5834H12.7507C12.9169 16.5834 13.0696 16.514 13.209 16.3754C13.3484 16.2367 13.4177 16.0836 13.417 15.916V2.50002ZM5.62566 14.4167H6.70899V4.66669H5.62566V14.4167ZM9.29166 14.4167H10.375V4.66669H9.29166V14.4167Z" fill="#F4F4F4"/>
</svg>
