<svg width="18" height="18" viewBox="0 0 18 18" fill="none" xmlns="http://www.w3.org/2000/svg">
<path d="M0.875 14.6409V16.5833C0.875 16.727 0.932068 16.8648 1.03365 16.9663C1.13523 17.0679 1.27301 17.125 1.41667 17.125H3.35908C3.50247 17.125 3.63999 17.0681 3.7415 16.9668L12.9498 7.7585L10.2415 5.05017L1.03317 14.2585C0.931909 14.36 0.87503 14.4975 0.875 14.6409ZM12.3475 2.94417L15.0558 5.6525L16.3591 4.34925C16.5622 4.14609 16.6763 3.87059 16.6763 3.58333C16.6763 3.29607 16.5622 3.02057 16.3591 2.81742L15.1826 1.64092C14.9794 1.43782 14.7039 1.32373 14.4167 1.32373C14.1294 1.32373 13.8539 1.43782 13.6507 1.64092L12.3475 2.94417Z" stroke="#F4F4F4" stroke-width="1.5"/>
</svg>
