<svg width="51" height="43" viewBox="0 0 51 43" fill="none" xmlns="http://www.w3.org/2000/svg">
<g clip-path="url(#clip0_1458_1746)">
<path d="M0 19.8167V35.0167C0 36.0245 0.400356 36.9911 1.11299 37.7037C1.82563 38.4164 2.79218 38.8167 3.8 38.8167H34.2C35.2078 38.8167 36.1744 38.4164 36.887 37.7037C37.5996 36.9911 38 36.0245 38 35.0167V19.8167L19 27.4167L0 19.8167Z" fill="#E4E6F6"/>
<path d="M3.8 8.41669C2.79218 8.41669 1.82563 8.81704 1.11299 9.52968C0.400356 10.2423 0 11.2089 0 12.2167L0 16.0167L19 23.6167L38 16.0167V12.2167C38 11.2089 37.5996 10.2423 36.887 9.52968C36.1744 8.81704 35.2078 8.41669 34.2 8.41669H3.8Z" fill="#E4E6F6"/>
</g>
<g filter="url(#filter0_d_1458_1746)">
<ellipse cx="38" cy="9.34584" rx="9" ry="9.34584" fill="#1976D2"/>
</g>
<path d="M37.175 12.1902V13.1152H33.175V12.1902H34.64V7.97523C34.64 7.80857 34.645 7.6369 34.655 7.46023L33.615 8.33023C33.555 8.3769 33.495 8.4069 33.435 8.42023C33.3783 8.43023 33.3233 8.43023 33.27 8.42023C33.22 8.41023 33.175 8.39357 33.135 8.37023C33.095 8.34357 33.065 8.31523 33.045 8.28523L32.655 7.75023L34.86 5.87523H35.875V12.1902H37.175ZM42.4508 9.50023C42.4508 10.1302 42.3824 10.6786 42.2458 11.1452C42.1124 11.6086 41.9258 11.9919 41.6858 12.2952C41.4491 12.5986 41.1674 12.8252 40.8408 12.9752C40.5174 13.1219 40.1674 13.1952 39.7908 13.1952C39.4141 13.1952 39.0641 13.1219 38.7408 12.9752C38.4208 12.8252 38.1424 12.5986 37.9058 12.2952C37.6691 11.9919 37.4841 11.6086 37.3508 11.1452C37.2174 10.6786 37.1508 10.1302 37.1508 9.50023C37.1508 8.8669 37.2174 8.31857 37.3508 7.85523C37.4841 7.3919 37.6691 7.00857 37.9058 6.70523C38.1424 6.4019 38.4208 6.1769 38.7408 6.03023C39.0641 5.88023 39.4141 5.80523 39.7908 5.80523C40.1674 5.80523 40.5174 5.88023 40.8408 6.03023C41.1674 6.1769 41.4491 6.4019 41.6858 6.70523C41.9258 7.00857 42.1124 7.3919 42.2458 7.85523C42.3824 8.31857 42.4508 8.8669 42.4508 9.50023ZM41.1758 9.50023C41.1758 8.9769 41.1374 8.54357 41.0608 8.20023C40.9841 7.8569 40.8808 7.58357 40.7508 7.38023C40.6241 7.1769 40.4774 7.03523 40.3108 6.95523C40.1441 6.8719 39.9708 6.83023 39.7908 6.83023C39.6141 6.83023 39.4424 6.8719 39.2758 6.95523C39.1124 7.03523 38.9674 7.1769 38.8408 7.38023C38.7141 7.58357 38.6124 7.8569 38.5358 8.20023C38.4624 8.54357 38.4258 8.9769 38.4258 9.50023C38.4258 10.0236 38.4624 10.4569 38.5358 10.8002C38.6124 11.1436 38.7141 11.4169 38.8408 11.6202C38.9674 11.8236 39.1124 11.9669 39.2758 12.0502C39.4424 12.1302 39.6141 12.1702 39.7908 12.1702C39.9708 12.1702 40.1441 12.1302 40.3108 12.0502C40.4774 11.9669 40.6241 11.8236 40.7508 11.6202C40.8808 11.4169 40.9841 11.1436 41.0608 10.8002C41.1374 10.4569 41.1758 10.0236 41.1758 9.50023Z" fill="white"/>
<defs>
<filter id="filter0_d_1458_1746" x="25" y="0" width="26" height="26.6917" filterUnits="userSpaceOnUse" color-interpolation-filters="sRGB">
<feFlood flood-opacity="0" result="BackgroundImageFix"/>
<feColorMatrix in="SourceAlpha" type="matrix" values="0 0 0 0 0 0 0 0 0 0 0 0 0 0 0 0 0 0 127 0" result="hardAlpha"/>
<feOffset dy="4"/>
<feGaussianBlur stdDeviation="2"/>
<feComposite in2="hardAlpha" operator="out"/>
<feColorMatrix type="matrix" values="0 0 0 0 0.0980392 0 0 0 0 0.462745 0 0 0 0 0.823529 0 0 0 0.6 0"/>
<feBlend mode="normal" in2="BackgroundImageFix" result="effect1_dropShadow_1458_1746"/>
<feBlend mode="normal" in="SourceGraphic" in2="effect1_dropShadow_1458_1746" result="shape"/>
</filter>
<clipPath id="clip0_1458_1746">
<rect width="38" height="38" fill="white" transform="translate(0 4.6167)"/>
</clipPath>
</defs>
</svg>
