<svg width="41" height="42" viewBox="0 0 41 42" fill="none" xmlns="http://www.w3.org/2000/svg">
<g clip-path="url(#clip0_1458_1753)">
<path d="M31.9375 34.3486L31.6069 34.057C30.6692 33.2214 29.8483 32.2633 29.1667 31.2083C28.4222 29.7525 27.9759 28.1626 27.8542 26.532V21.7292C27.8606 19.168 26.9315 16.6926 25.2415 14.768C23.5516 12.8435 21.2169 11.6024 18.6764 11.2778V10.0236C18.6764 9.6794 18.5396 9.34927 18.2962 9.10586C18.0528 8.86245 17.7227 8.72571 17.3785 8.72571C17.0342 8.72571 16.7041 8.86245 16.4607 9.10586C16.2173 9.34927 16.0806 9.6794 16.0806 10.0236V11.2972C13.5627 11.6452 11.2564 12.8939 9.58856 14.8119C7.92077 16.73 7.00459 19.1874 7.00972 21.7292V26.532C6.88795 28.1626 6.44172 29.7525 5.69722 31.2083C5.02724 32.2606 4.21963 33.2186 3.29583 34.057L2.96527 34.3486V37.0903H31.9375V34.3486Z" fill="#E4E6F6"/>
<path d="M14.8945 38.1111C14.9797 38.7274 15.2851 39.292 15.7542 39.7006C16.2233 40.1093 16.8244 40.3344 17.4466 40.3344C18.0687 40.3344 18.6698 40.1093 19.1389 39.7006C19.608 39.292 19.9134 38.7274 19.9986 38.1111H14.8945Z" fill="#E4E6F6"/>
</g>
<g filter="url(#filter0_d_1458_1753)">
<circle cx="28" cy="9" r="9" fill="#4CAF50"/>
<path d="M27.175 12.075V13H23.175V12.075H24.64V7.86C24.64 7.69333 24.645 7.52167 24.655 7.345L23.615 8.215C23.555 8.26167 23.495 8.29167 23.435 8.305C23.3783 8.315 23.3233 8.315 23.27 8.305C23.22 8.295 23.175 8.27833 23.135 8.255C23.095 8.22833 23.065 8.2 23.045 8.17L22.655 7.635L24.86 5.76H25.875V12.075H27.175ZM32.4508 9.385C32.4508 10.015 32.3824 10.5633 32.2458 11.03C32.1124 11.4933 31.9258 11.8767 31.6858 12.18C31.4491 12.4833 31.1674 12.71 30.8408 12.86C30.5174 13.0067 30.1674 13.08 29.7908 13.08C29.4141 13.08 29.0641 13.0067 28.7408 12.86C28.4208 12.71 28.1424 12.4833 27.9058 12.18C27.6691 11.8767 27.4841 11.4933 27.3508 11.03C27.2174 10.5633 27.1508 10.015 27.1508 9.385C27.1508 8.75167 27.2174 8.20333 27.3508 7.74C27.4841 7.27667 27.6691 6.89333 27.9058 6.59C28.1424 6.28667 28.4208 6.06167 28.7408 5.915C29.0641 5.765 29.4141 5.69 29.7908 5.69C30.1674 5.69 30.5174 5.765 30.8408 5.915C31.1674 6.06167 31.4491 6.28667 31.6858 6.59C31.9258 6.89333 32.1124 7.27667 32.2458 7.74C32.3824 8.20333 32.4508 8.75167 32.4508 9.385ZM31.1758 9.385C31.1758 8.86167 31.1374 8.42833 31.0608 8.085C30.9841 7.74167 30.8808 7.46833 30.7508 7.265C30.6241 7.06167 30.4774 6.92 30.3108 6.84C30.1441 6.75667 29.9708 6.715 29.7908 6.715C29.6141 6.715 29.4424 6.75667 29.2758 6.84C29.1124 6.92 28.9674 7.06167 28.8408 7.265C28.7141 7.46833 28.6124 7.74167 28.5358 8.085C28.4624 8.42833 28.4258 8.86167 28.4258 9.385C28.4258 9.90833 28.4624 10.3417 28.5358 10.685C28.6124 11.0283 28.7141 11.3017 28.8408 11.505C28.9674 11.7083 29.1124 11.8517 29.2758 11.935C29.4424 12.015 29.6141 12.055 29.7908 12.055C29.9708 12.055 30.1441 12.015 30.3108 11.935C30.4774 11.8517 30.6241 11.7083 30.7508 11.505C30.8808 11.3017 30.9841 11.0283 31.0608 10.685C31.1374 10.3417 31.1758 9.90833 31.1758 9.385Z" fill="white"/>
</g>
<defs>
<filter id="filter0_d_1458_1753" x="15" y="0" width="26" height="26" filterUnits="userSpaceOnUse" color-interpolation-filters="sRGB">
<feFlood flood-opacity="0" result="BackgroundImageFix"/>
<feColorMatrix in="SourceAlpha" type="matrix" values="0 0 0 0 0 0 0 0 0 0 0 0 0 0 0 0 0 0 127 0" result="hardAlpha"/>
<feOffset dy="4"/>
<feGaussianBlur stdDeviation="2"/>
<feComposite in2="hardAlpha" operator="out"/>
<feColorMatrix type="matrix" values="0 0 0 0 0.298039 0 0 0 0 0.686275 0 0 0 0 0.313726 0 0 0 0.6 0"/>
<feBlend mode="normal" in2="BackgroundImageFix" result="effect1_dropShadow_1458_1753"/>
<feBlend mode="normal" in="SourceGraphic" in2="effect1_dropShadow_1458_1753" result="shape"/>
</filter>
<clipPath id="clip0_1458_1753">
<rect width="35" height="35" fill="white" transform="translate(0 7)"/>
</clipPath>
</defs>
</svg>
