<svg width="171" height="64" viewBox="0 0 171 64" fill="none" xmlns="http://www.w3.org/2000/svg">
<path d="M73.9904 55.8878V45.3706H78.512C80.5399 45.3706 81.5538 46.2131 81.5538 47.898C81.5538 49.284 80.5673 50.3031 78.5942 50.9553L82.2115 55.8878H80.4029L77.0322 51.1591V50.2623C79.0601 49.9634 80.074 49.2025 80.074 47.9795C80.074 47.0012 79.5122 46.512 78.3887 46.512H75.3879V55.8878H73.9904Z" fill="white"/>
<path d="M90.5972 45.3706V46.4712H85.0479V50.0177H90.3505V51.1184H85.0479V54.7872H90.7205V55.8878H83.6914V45.3706H90.5972Z" fill="white"/>
<path d="M93.1457 55.8878H91.707L96.2287 45.3706H97.7496L102.271 55.8878H100.75L99.3938 52.5859H95.8587L96.2287 51.4853H98.9005L96.9275 46.7158L93.1457 55.8878Z" fill="white"/>
<path d="M105.066 45.3706V54.7872H110.616V55.8878H103.71V45.3706H105.066Z" fill="white"/>
<path d="M122.906 45.3706V46.4712H117.357V50.0177H122.66V51.1184H117.357V54.7872H123.03V55.8878H115.959V45.3706H122.906Z" fill="white"/>
<path d="M124.962 55.5209V54.298C126.058 54.6784 127.25 54.8687 128.538 54.8687C130.374 54.8687 131.292 54.2029 131.292 52.8712C131.292 51.757 130.62 51.1999 129.278 51.1999H127.921C125.701 51.1999 124.592 50.2351 124.592 48.3056C124.592 46.3218 126.003 45.3162 128.825 45.2891C130.059 45.2891 131.21 45.4385 132.278 45.7375V47.0012C131.21 46.6207 130.059 46.4305 128.825 46.4305C126.907 46.4305 125.948 47.0555 125.948 48.3056C125.948 49.447 126.606 50.0177 127.921 50.0177H129.278C131.525 50.0177 132.648 50.9689 132.648 52.8712C132.648 54.9366 131.278 55.9693 128.538 55.9693C127.25 55.9693 126.058 55.8198 124.962 55.5209Z" fill="white"/>
<path d="M141.815 45.3706V46.4712H138.485V55.8878H137.129V46.4712H133.758V45.3706H141.815Z" fill="white"/>
<path d="M142.678 55.8878H141.281L145.761 45.3706H147.282L151.804 55.8878H150.283L148.926 52.5859H145.391L145.802 51.4853H148.474L146.46 46.7158L142.678 55.8878Z" fill="white"/>
<path d="M159.285 45.3706V46.4712H155.955V55.8878H154.599V46.4712H151.269V45.3706H159.285Z" fill="white"/>
<path d="M167.876 45.3706V46.4712H162.286V50.0177H167.588V51.1184H162.286V54.7872H167.958V55.8878H160.929V45.3706H167.876Z" fill="white"/>
<path d="M69.4687 60.4536L70.2908 62.0434L71.1129 60.4536H71.7706L70.6197 62.5734V63.7148H69.962V62.5734L68.7699 60.4536H69.4687Z" fill="white"/>
<path fill-rule="evenodd" clip-rule="evenodd" d="M75.1414 63.7148C74.8947 63.7148 74.6755 63.674 74.4837 63.5925C74.3192 63.4838 74.1685 63.3615 74.0315 63.2256C73.8945 63.0625 73.7849 62.8859 73.7027 62.6957C73.6205 62.5054 73.5793 62.3016 73.5793 62.0842C73.5793 61.8668 73.6205 61.663 73.7027 61.4727C73.7849 61.2553 73.8945 61.0787 74.0315 60.9428C74.1685 60.7797 74.333 60.6574 74.5248 60.5759C74.7166 60.4944 74.9221 60.4536 75.1414 60.4536C75.388 60.4536 75.5935 60.4944 75.758 60.5759C75.9498 60.6846 76.1142 60.8069 76.2512 60.9428C76.3882 61.1058 76.4979 61.2825 76.5801 61.4727C76.6623 61.6901 76.7034 61.894 76.7034 62.0842C76.7034 62.3016 76.6623 62.5054 76.5801 62.6957C76.4979 62.9131 76.3882 63.0897 76.2512 63.2256C76.1142 63.3886 75.9498 63.5109 75.758 63.5925C75.5661 63.674 75.3606 63.7148 75.1414 63.7148ZM74.237 62.0842C74.237 62.2201 74.2507 62.3559 74.2781 62.4918C74.333 62.6277 74.4015 62.7364 74.4837 62.8179C74.5385 62.9267 74.6344 63.0082 74.7714 63.0625C74.881 63.1441 75.0043 63.1848 75.1414 63.1848C75.2784 63.1848 75.4017 63.1441 75.5113 63.0625C75.6483 63.0082 75.7442 62.9267 75.7991 62.8179C75.8813 62.7092 75.9498 62.6005 76.0046 62.4918C76.032 62.3559 76.0457 62.2201 76.0457 62.0842C76.0457 61.9483 76.032 61.8124 76.0046 61.6765C75.9498 61.5407 75.8813 61.4184 75.7991 61.3097C75.7168 61.2281 75.6209 61.1602 75.5113 61.1058C75.4017 61.0243 75.2784 60.9836 75.1414 60.9836C75.0043 60.9836 74.8673 61.0243 74.7303 61.1058C74.6207 61.1602 74.5385 61.2417 74.4837 61.3504C74.4015 61.4591 74.333 61.5678 74.2781 61.6765C74.2507 61.8124 74.237 61.9483 74.237 62.0842Z" fill="white"/>
<path d="M80.4029 63.1848C80.54 63.1848 80.6633 63.1441 80.7729 63.0625C80.8825 63.0082 80.9647 62.9402 81.0195 62.8587C81.1017 62.75 81.1565 62.6277 81.1839 62.4918C81.1839 62.3831 81.1839 62.2608 81.1839 62.1249V60.4536H81.8416V62.1249C81.8416 62.3424 81.8142 62.5462 81.7594 62.7364C81.7046 62.9266 81.6224 63.1033 81.5128 63.2663C81.3758 63.4022 81.225 63.5109 81.0606 63.5925C80.8688 63.674 80.6496 63.7148 80.4029 63.7148C80.1563 63.7148 79.9371 63.674 79.7452 63.5925C79.5534 63.5109 79.4027 63.3886 79.2931 63.2256C79.1835 63.0897 79.1013 62.9266 79.0464 62.7364C78.9916 62.5462 78.9642 62.3424 78.9642 62.1249V60.4536H79.6219V62.1249C79.6219 62.2608 79.6356 62.3831 79.663 62.4918C79.6904 62.6277 79.7315 62.75 79.7863 62.8587C79.8412 62.9402 79.9234 63.0082 80.033 63.0625C80.1426 63.1441 80.2659 63.1848 80.4029 63.1848Z" fill="white"/>
<path fill-rule="evenodd" clip-rule="evenodd" d="M84.308 63.7148V60.4536H85.7467C85.9111 60.4536 86.0481 60.4944 86.1577 60.5759C86.2948 60.6303 86.4044 60.7118 86.4866 60.8205C86.5962 60.902 86.6784 61.0107 86.7332 61.1466C86.788 61.2825 86.8154 61.4184 86.8154 61.5542C86.8154 61.7445 86.7606 61.9347 86.651 62.1249C86.5414 62.288 86.3907 62.4103 86.1988 62.4918L86.9799 63.7148H86.24L85.5823 62.6141H84.9657V63.7148H84.308ZM84.9246 62.0842H85.7056C85.7604 62.0842 85.8152 62.0706 85.87 62.0434C85.9248 62.0162 85.9796 61.9755 86.0344 61.9211C86.0618 61.8668 86.0892 61.8124 86.1166 61.7581C86.1166 61.6765 86.1166 61.6086 86.1166 61.5542C86.1166 61.4727 86.1166 61.3912 86.1166 61.3097C86.0892 61.2553 86.0481 61.201 85.9933 61.1466C85.9659 61.1194 85.9248 61.0923 85.87 61.0651C85.8152 61.0379 85.7604 61.0243 85.7056 61.0243H84.9246V62.0842Z" fill="white"/>
<path d="M94.5022 61.0243H93.4745V63.7148H92.8579V61.0243H91.7892V60.4536H94.5022V61.0243Z" fill="white"/>
<path fill-rule="evenodd" clip-rule="evenodd" d="M96.1464 63.7148L97.4206 60.4536H97.955L99.2293 63.7148H98.5305L98.2428 62.8995H97.0918L96.8041 63.7148H96.1464ZM97.7084 61.1466L97.2151 62.4511H98.1605L97.7084 61.1466Z" fill="white"/>
<path d="M103.587 63.3479C103.34 63.5925 103.052 63.7148 102.723 63.7148C102.532 63.7148 102.34 63.674 102.148 63.5925C101.956 63.5109 101.792 63.3886 101.655 63.2256C101.518 63.0625 101.408 62.8859 101.326 62.6957C101.271 62.4782 101.244 62.2744 101.244 62.0842C101.244 61.8396 101.271 61.6222 101.326 61.432C101.408 61.2417 101.518 61.0651 101.655 60.902C101.792 60.7661 101.956 60.6574 102.148 60.5759C102.34 60.4944 102.545 60.4536 102.764 60.4536C103.066 60.4536 103.326 60.508 103.545 60.6167C103.765 60.7525 103.929 60.9292 104.039 61.1466L103.545 61.5135C103.463 61.3504 103.354 61.2145 103.217 61.1058C103.08 61.0243 102.929 60.9836 102.764 60.9836C102.627 60.9836 102.504 61.0107 102.394 61.0651C102.285 61.1466 102.189 61.2281 102.107 61.3097C102.025 61.4184 101.97 61.5407 101.942 61.6765C101.888 61.8124 101.86 61.9483 101.86 62.0842C101.86 62.2472 101.888 62.3831 101.942 62.4918C101.97 62.6277 102.025 62.75 102.107 62.8587C102.216 62.9402 102.326 63.0218 102.436 63.1033C102.545 63.1576 102.669 63.1848 102.806 63.1848C103.107 63.1848 103.367 63.0354 103.587 62.7364V62.4918H102.929V62.0434H104.121V63.7148H103.587V63.3479Z" fill="white"/>
<path d="M106.505 63.7148V60.4536H107.163V63.1441H108.807V63.7148H106.505Z" fill="white"/>
<path d="M111.068 63.7148V60.4536H111.725V63.7148H111.068Z" fill="white"/>
<path d="M114.849 61.6358V63.7148H114.233V60.4536H114.726L116.412 62.5734V60.4536H117.069V63.7148H116.535L114.849 61.6358Z" fill="white"/>
<path d="M121.879 63.1441V63.7148H119.577V60.4536H121.796V61.0243H120.234V61.7988H121.591V62.288H120.234V63.1441H121.879Z" fill="white"/>
<path d="M129.113 61.3097C129.086 61.2825 129.045 61.2553 128.99 61.2281C128.935 61.201 128.867 61.1602 128.784 61.1058C128.702 61.0787 128.606 61.0515 128.497 61.0243C128.414 60.9971 128.318 60.9836 128.209 60.9836C128.044 60.9836 127.921 61.0243 127.839 61.1058C127.757 61.1602 127.716 61.2417 127.716 61.3504C127.716 61.432 127.729 61.4863 127.757 61.5135C127.784 61.5678 127.825 61.6086 127.88 61.6358C127.962 61.663 128.044 61.6901 128.127 61.7173C128.209 61.7445 128.318 61.7717 128.455 61.7988C128.62 61.8532 128.771 61.9075 128.908 61.9619C129.017 62.0162 129.127 62.0706 129.236 62.1249C129.319 62.2065 129.387 62.3016 129.442 62.4103C129.469 62.519 129.483 62.6413 129.483 62.7772C129.483 62.9402 129.456 63.0897 129.401 63.2256C129.346 63.3343 129.264 63.4294 129.154 63.5109C129.045 63.5925 128.908 63.6468 128.743 63.674C128.606 63.7283 128.455 63.7555 128.291 63.7555C128.044 63.7555 127.798 63.7148 127.551 63.6332C127.332 63.5517 127.126 63.443 126.935 63.3071L127.181 62.7772C127.209 62.8044 127.263 62.8451 127.346 62.8995C127.428 62.9266 127.51 62.9674 127.592 63.0218C127.702 63.0761 127.812 63.1169 127.921 63.1441C128.058 63.1712 128.181 63.1848 128.291 63.1848C128.647 63.1848 128.825 63.0761 128.825 62.8587C128.825 62.7772 128.812 62.7092 128.784 62.6549C128.73 62.6005 128.661 62.5598 128.579 62.5326C128.524 62.5054 128.442 62.4647 128.332 62.4103C128.223 62.3831 128.099 62.3559 127.962 62.3288C127.825 62.3016 127.688 62.2608 127.551 62.2065C127.442 62.1521 127.346 62.0842 127.263 62.0027C127.209 61.9483 127.154 61.8804 127.099 61.7988C127.072 61.6901 127.058 61.5814 127.058 61.4727C127.058 61.3097 127.085 61.1602 127.14 61.0243C127.195 60.8884 127.277 60.7797 127.387 60.6982C127.496 60.6167 127.633 60.5487 127.798 60.4944C127.935 60.4672 128.086 60.4536 128.25 60.4536C128.469 60.4536 128.675 60.4808 128.867 60.5351C129.058 60.6167 129.236 60.6982 129.401 60.7797L129.113 61.3097Z" fill="white"/>
<path fill-rule="evenodd" clip-rule="evenodd" d="M131.826 63.7148V60.4536H133.224C133.361 60.4536 133.498 60.4944 133.635 60.5759C133.744 60.6303 133.854 60.7118 133.964 60.8205C134.046 60.902 134.114 61.0107 134.169 61.1466C134.224 61.2825 134.251 61.4184 134.251 61.5542C134.251 61.6901 134.224 61.8124 134.169 61.9211C134.114 62.057 134.046 62.1793 133.964 62.288C133.881 62.3967 133.772 62.4782 133.635 62.5326C133.525 62.5869 133.388 62.6141 133.224 62.6141H132.443V63.7148H131.826ZM132.484 62.0842H133.224C133.333 62.0842 133.429 62.0298 133.511 61.9211C133.594 61.8396 133.635 61.7173 133.635 61.5542C133.635 61.4727 133.621 61.3912 133.594 61.3097C133.566 61.2553 133.539 61.201 133.511 61.1466C133.457 61.0923 133.402 61.0651 133.347 61.0651C133.292 61.0379 133.237 61.0243 133.183 61.0243H132.484V62.0842Z" fill="white"/>
<path fill-rule="evenodd" clip-rule="evenodd" d="M135.978 63.7148L137.252 60.4536H137.787L139.061 63.7148H138.362L138.074 62.8995H136.923L136.636 63.7148H135.978ZM137.54 61.1466L137.047 62.4511H137.992L137.54 61.1466Z" fill="white"/>
<path d="M141.034 62.0434C141.034 61.8532 141.075 61.663 141.157 61.4727C141.239 61.2825 141.335 61.1058 141.445 60.9428C141.582 60.8069 141.746 60.6846 141.938 60.5759C142.13 60.4944 142.363 60.4536 142.637 60.4536C142.911 60.4536 143.158 60.5216 143.377 60.6574C143.596 60.7661 143.747 60.9292 143.829 61.1466L143.377 61.4727C143.322 61.3912 143.267 61.3233 143.213 61.2689C143.158 61.1874 143.089 61.133 143.007 61.1058C142.952 61.0787 142.884 61.0515 142.801 61.0243C142.747 60.9971 142.678 60.9836 142.596 60.9836C142.459 60.9836 142.322 61.0243 142.185 61.1058C142.075 61.1602 141.993 61.2417 141.938 61.3504C141.856 61.4591 141.788 61.5678 141.733 61.6765C141.705 61.8124 141.692 61.9483 141.692 62.0842C141.692 62.2201 141.719 62.3559 141.774 62.4918C141.801 62.6277 141.856 62.75 141.938 62.8587C142.02 62.9402 142.116 63.0082 142.226 63.0625C142.336 63.1441 142.459 63.1848 142.596 63.1848C142.678 63.1848 142.76 63.1712 142.843 63.1441C142.897 63.1169 142.966 63.0897 143.048 63.0625C143.103 63.0354 143.171 62.981 143.254 62.8995C143.308 62.8451 143.35 62.7772 143.377 62.6957L143.911 62.981C143.857 63.0897 143.774 63.1984 143.665 63.3071C143.582 63.3886 143.487 63.4702 143.377 63.5517C143.24 63.6061 143.103 63.6468 142.966 63.674C142.856 63.7012 142.733 63.7148 142.596 63.7148C142.377 63.7148 142.171 63.674 141.979 63.5925C141.788 63.4838 141.623 63.3479 141.486 63.1848C141.349 63.0489 141.239 62.8723 141.157 62.6549C141.075 62.4647 141.034 62.2608 141.034 62.0434Z" fill="white"/>
<path d="M148.433 63.1441V63.7148H146.172V60.4536H148.392V61.0243H146.789V61.7988H148.186V62.288H146.789V63.1441H148.433Z" fill="white"/>
<path d="M156.49 60.4536V63.7148H155.873V62.3288H154.352V63.7148H153.736V60.4536H154.352V61.7581H155.873V60.4536H156.49Z" fill="white"/>
<path d="M161.258 63.1441V63.7148H158.997V60.4536H161.258V61.0243H159.655V61.7988H161.011V62.288H159.655V63.1441H161.258Z" fill="white"/>
<path fill-rule="evenodd" clip-rule="evenodd" d="M163.642 63.7148V60.4536H165.081C165.218 60.4536 165.355 60.4944 165.492 60.5759C165.629 60.6303 165.738 60.7118 165.821 60.8205C165.903 60.902 165.971 61.0107 166.026 61.1466C166.081 61.2825 166.108 61.4184 166.108 61.5542C166.108 61.7445 166.054 61.9347 165.944 62.1249C165.862 62.288 165.725 62.4103 165.533 62.4918L166.314 63.7148H165.574L164.875 62.6141H164.259V63.7148H163.642ZM164.3 62.0842H165.081C165.136 62.0842 165.19 62.0706 165.245 62.0434C165.3 62.0162 165.341 61.9755 165.369 61.9211C165.423 61.8668 165.451 61.8124 165.451 61.7581C165.478 61.6765 165.492 61.6086 165.492 61.5542C165.492 61.4727 165.478 61.3912 165.451 61.3097C165.423 61.2553 165.396 61.201 165.369 61.1466C165.314 61.1194 165.259 61.0923 165.204 61.0651C165.149 61.0379 165.094 61.0243 165.04 61.0243H164.3V62.0842Z" fill="white"/>
<path d="M12.2906 62.7771V41.865L49.2036 15.0829L59.3978 22.4612L69.592 15.0829L49.2036 0.326172L0.246582 35.7911V62.7771H12.2906Z" fill="white"/>
<path d="M52.1633 62.7771V41.865L89.1173 15.0829H109.506L89.1173 0.326172L40.1193 35.7911V62.7771H52.1633Z" fill="white"/>
</svg>
