<svg width="26" height="26" viewBox="0 0 26 26" fill="none" xmlns="http://www.w3.org/2000/svg">
<rect x="2" y="5" width="23" height="15" fill="#FCFCFC"/>
<path fill-rule="evenodd" clip-rule="evenodd" d="M3 18.9488H10.5015C10.5607 18.9488 10.6184 18.9676 10.6662 19.0025C10.714 19.0374 10.7495 19.0866 10.7675 19.143H11.5H13.5219H15.2546L16.1857 19.12C16.2069 19.0696 16.2425 19.0265 16.2881 18.9963C16.3337 18.966 16.3872 18.9498 16.4419 18.9498L23.9434 18.9488V7H13.5219H3V18.9488ZM13.5219 16.5499L14.7313 13.2853C14.0461 13.0806 13.3227 13.0381 12.6183 13.1614C11.9138 13.2846 11.2478 13.5702 10.6728 13.9954C10.0978 14.4206 9.62972 14.9739 9.30556 15.6113C8.9814 16.2487 8.81008 16.9529 8.80516 17.668C8.80828 17.7064 8.80341 17.7451 8.79085 17.7816C8.77828 17.818 8.75831 17.8515 8.73217 17.8799C8.70604 17.9082 8.67432 17.9309 8.639 17.9463C8.60369 17.9618 8.56555 17.9699 8.52698 17.9699H5.99579C6.04817 18.0223 5.92171 17.9699 5.99579 17.9699C5.94341 17.9175 5.99579 17.6639 5.99579 17.6639C5.99635 16.1411 6.16965 14.6796 7.01692 13.4143C7.8642 12.1491 9.06803 11.1638 10.4758 10.5835C11.8836 10.0031 13.432 9.85372 14.9248 10.1543C16.4176 10.4548 17.7875 11.1918 18.8611 12.2717C20.2217 13.5659 21.0909 15.8542 21.0979 17.6639C21.1016 17.7026 21.0971 17.7417 21.0849 17.7786C21.0726 17.8155 21.0527 17.8494 21.0266 17.8782C21.0004 17.907 20.9685 17.93 20.933 17.9457C20.8974 17.9615 20.859 17.9697 20.8201 17.9697H18.2893C18.2507 17.9697 18.2126 17.9616 18.1772 17.9461C18.1419 17.9307 18.1102 17.908 18.0841 17.8796C18.0579 17.8513 18.038 17.8178 18.0254 17.7814C18.0128 17.7449 18.008 17.7062 18.0111 17.6678C18.0056 16.7777 17.7423 15.9082 17.2531 15.1645C16.7639 14.4208 16.0698 13.8348 15.2546 13.4772L14.0465 16.7384C14.2789 16.8942 14.4463 17.1296 14.5172 17.4002C14.5882 17.6709 14.5577 17.9581 14.4315 18.2078C14.3054 18.4576 14.0923 18.6525 13.8324 18.7561C13.5725 18.8596 13.2836 18.8645 13.0204 18.7699C12.7571 18.6753 12.5374 18.4877 12.4029 18.2424C12.2683 17.9971 12.228 17.7111 12.2897 17.4382C12.3514 17.1653 12.5107 16.9243 12.7376 16.7607C12.9646 16.5971 13.2435 16.5222 13.5219 16.5499Z" fill="#03053D"/>
</svg>
